<?xml version="1.0" standalone="no"?>
<!DOCTYPE svg PUBLIC "-//W3C//DTD SVG 20010904//EN"
 "http://www.w3.org/TR/2001/REC-SVG-20010904/DTD/svg10.dtd">
<svg version="1.0" xmlns="http://www.w3.org/2000/svg"
 width="1280.000000pt" height="1076.000000pt" viewBox="0 0 1280.000000 1076.000000"
 preserveAspectRatio="xMidYMid meet">
<metadata>
Created by potrace 1.15, written by Peter Selinger 2001-2017
</metadata>
<g transform="translate(0.000000,1076.000000) scale(0.100000,-0.100000)"
fill="current" stroke="none">
<path d="M2767 10744 c-122 -38 -212 -124 -288 -279 -131 -268 -163 -671 -80
-1005 129 -513 115 -1191 -34 -1709 -73 -254 -154 -399 -331 -596 -252 -279
-349 -429 -403 -625 -89 -318 29 -715 343 -1158 36 -51 66 -95 66 -98 0 -2
-19 -4 -42 -4 -24 0 -104 -9 -178 -20 -599 -88 -1008 -291 -1152 -573 -10 -21
-28 -73 -39 -114 -25 -98 -26 -391 -3 -714 34 -477 4 -610 -182 -795 -116
-116 -164 -180 -213 -285 -60 -128 -72 -185 -78 -354 -4 -136 -2 -159 20 -246
60 -231 170 -396 387 -579 197 -166 292 -282 306 -376 8 -53 0 -76 -38 -120
-66 -75 -198 -117 -419 -134 -206 -15 -315 -59 -376 -151 -123 -186 97 -384
529 -473 235 -48 597 -67 1328 -69 652 -1 784 11 1195 109 105 24 222 52 260
61 39 8 167 45 285 80 322 96 591 157 900 203 41 6 91 13 110 16 29 5 16 -7
-75 -64 -497 -312 -735 -595 -558 -663 47 -18 158 -10 277 20 255 65 614 233
941 441 259 165 380 196 840 220 217 11 281 24 410 84 147 70 236 156 267 259
l12 39 43 -7 c67 -10 241 -7 302 5 81 15 155 53 214 109 l53 50 95 11 c126 14
282 45 407 81 96 27 113 29 280 29 200 0 507 -15 627 -31 117 -15 1126 -239
1467 -325 205 -51 293 -81 402 -137 143 -73 233 -76 306 -7 61 57 30 120 -61
120 -98 0 -531 89 -1118 230 -528 126 -820 167 -1354 190 -133 6 -253 12 -265
13 -15 1 19 20 95 51 163 67 440 208 611 311 l144 86 221 24 c527 58 667 65
825 43 118 -16 190 10 228 83 32 62 -15 100 -91 74 -75 -25 -277 -53 -731
-100 -132 -14 -254 -25 -273 -25 -34 0 -34 0 38 50 88 61 159 115 321 245 200
161 373 273 1110 721 975 592 1443 925 1806 1288 181 181 266 301 315 443 89
259 -61 480 -388 575 -73 22 -93 23 -323 20 -309 -4 -334 -1 -1240 117 -815
107 -1309 154 -1610 155 -203 0 -241 -2 -382 -27 -376 -66 -743 -195 -1203
-422 -461 -228 -918 -509 -1354 -832 -62 -46 -118 -86 -125 -89 -8 -3 -22 53
-45 178 -375 2070 -887 3725 -1466 4739 -248 434 -675 966 -1016 1266 -223
195 -446 332 -599 368 -81 19 -190 18 -253 -1z m3823 -9343 c0 -8 -23 -21 -36
-21 -2 0 -4 11 -4 25 0 23 2 24 20 15 11 -6 20 -15 20 -19z"/>
</g>
</svg>
